<?xml version="1.0" encoding="utf-8"?>
<!-- Generator: Adobe Illustrator 25.0.1, SVG Export Plug-In . SVG Version: 6.00 Build 0)  -->
<svg version="1.1" id="Isolation_Mode" xmlns="http://www.w3.org/2000/svg" xmlns:xlink="http://www.w3.org/1999/xlink" x="0px"
	 y="0px" viewBox="0 0 1200 466.3" style="enable-background:new 0 0 1200 466.3;" xml:space="preserve">
<style type="text/css">
	.st0{fill:#4F0C80;}
</style>
<g>
	<g>
		<path class="st0" d="M93.8,57.5h37.6c44.2,0,66.4,17.4,66.4,52.1c0,13.5-4.3,25.5-12.9,36.1c-8.6,10.5-22.1,15.8-40.6,15.8h-3
			l59.2,77.9c2.2,3.3,3.3,5.3,3.3,6c0,2.7-1.3,4.1-3.8,4.1h-5.5c-2.4,0-4.1-0.7-5.2-2.2l-63.3-83.4c-2-2.9-3-5.3-3-7.1
			c0-5.8,3.2-8.8,9.6-8.8h12.1c7.7,0,14.3-1.3,19.7-3.8c5.5-2.6,9.5-5.9,12.1-9.9c5.1-7.9,7.7-16,7.7-24.4
			c0-25.8-17.6-38.7-52.9-38.7H96v172.7c0,1.5-0.5,2.7-1.5,3.8c-1,1.1-2.3,1.6-4,1.6h-2.7c-1.6,0-3-0.5-4-1.6
			c-1-1.1-1.5-2.4-1.5-3.8V70.4c0-4.9,0.8-8.3,2.3-10.1C86.2,58.4,89.3,57.5,93.8,57.5z"/>
		<path class="st0" d="M229.3,57.5H325c1.5,0,2.7,0.5,3.8,1.6c1.1,1.1,1.6,2.4,1.6,3.8v2.5c0,1.6-0.6,3-1.6,4
			c-1.1,1-2.4,1.5-3.8,1.5H232V236H325c1.5,0,2.7,0.5,3.8,1.5c1.1,1,1.6,2.3,1.6,4v2.5c0,1.5-0.6,2.7-1.6,3.8
			c-1.1,1.1-2.4,1.6-3.8,1.6h-96c-4.4,0-7.3-1-8.6-2.9c-1.4-1.9-2.1-4.6-2.1-8.1V68.2c0-3.7,0.8-6.3,2.5-8.1
			C222.4,58.4,225.3,57.5,229.3,57.5z M248.5,143h58.7c1.6,0,3,0.5,4,1.6c1,1.1,1.5,2.4,1.5,3.8v2.5c0,3.7-1.8,5.5-5.5,5.5h-58.7
			c-3.7,0-5.5-1.8-5.5-5.5v-2.5c0-1.5,0.5-2.7,1.5-3.8C245.5,143.6,246.8,143,248.5,143z"/>
		<path class="st0" d="M485.9,56.7c2.9,0,5.5,1,7.7,2.9c2.2,1.9,3.3,4.9,3.3,8.9v175.5c0,1.5-0.5,2.7-1.5,3.8c-1,1.1-2.3,1.6-4,1.6
			H489c-1.6,0-3-0.5-4-1.6c-1-1.1-1.5-2.4-1.5-3.8V80.8l-47.7,117.9c-2,4.8-5.3,7.4-9.9,8c-5.3,0-9-2.6-11.2-7.7L364.2,79.7v164.2
			c0,1.5-0.5,2.7-1.6,3.8s-2.4,1.6-3.8,1.6H356c-1.5,0-2.7-0.5-3.7-1.6c-1-1.1-1.5-2.4-1.5-3.8V68.5c0-7.9,3.6-11.8,10.7-11.8
			c4.9,0,8.6,2.7,11,8.2l52.6,124.2L475,64.9C477.5,59.4,481.2,56.7,485.9,56.7z"/>
		<path class="st0" d="M564.6,63.9c6.6-2.8,12.3-4.6,17.3-5.3c4.9-0.7,10-1.1,15.2-1.1s10.4,0.4,15.5,1.2c5.1,0.8,10.9,2.7,17.4,5.6
			c6.5,2.9,12.1,6.7,16.9,11.4c4.7,4.7,8.8,11.2,12.1,19.7c3.3,8.5,4.9,18.3,4.9,29.5v55.7c0,11.5-1.7,21.7-5.1,30.4
			c-3.4,8.8-7.5,15.5-12.3,20.3c-4.8,4.8-10.5,8.6-16.9,11.5c-10.2,4.6-21,6.9-32.4,6.9c-11.9,0-22-2-30.3-6
			c-8.3-4-14.9-8.4-19.6-13.2c-4.8-4.8-8.8-11.5-12.1-20.2c-3.3-8.7-4.9-18.6-4.9-29.7v-55.7c0-11.5,1.7-21.6,5.1-30.2
			c3.4-8.6,7.4-15.2,12.2-19.7C552.4,70.5,558,66.8,564.6,63.9z M622.9,76.3c-5.2-2.3-9.8-3.7-13.7-4.4c-3.9-0.6-8-1-12.1-1
			s-8.2,0.3-12.2,1c-4,0.6-8.6,2.1-13.8,4.4c-5.2,2.3-9.7,5.3-13.6,9c-3.8,3.7-7.1,9.1-9.7,16.2c-2.7,7-4,15.2-4,24.5v53.7
			c0,9.3,1.3,17.6,4,24.7c2.6,7.1,5.9,12.7,9.9,16.6c3.9,3.9,8.5,7.1,13.6,9.5c5.1,2.4,9.7,3.9,13.8,4.7c4.1,0.7,8.2,1.1,12.2,1.1
			c4,0,8.1-0.4,12.2-1.1c4.1-0.7,8.7-2.3,13.8-4.7c5.1-2.4,9.6-5.5,13.4-9.5c3.8-3.9,7.1-9.5,9.7-16.6c2.6-7.1,4-15.4,4-24.7V126
			c0-9.3-1.4-17.5-4.1-24.5c-2.7-7-6-12.4-9.9-16.2C632.6,81.6,628.1,78.6,622.9,76.3z"/>
		<path class="st0" d="M689.7,57.5h121.7c1.6,0,3,0.5,4,1.6c1,1.1,1.5,2.4,1.5,3.8v3c0,3.3-1.8,4.9-5.5,4.9H689.7
			c-3.7,0-5.5-1.6-5.5-4.9v-3c0-1.5,0.5-2.7,1.6-3.8C686.9,58,688.2,57.5,689.7,57.5z M748.9,78.3h2.7c3.7,0,5.5,1.7,5.5,5.2v160.4
			c0,1.5-0.5,2.7-1.5,3.8c-1,1.1-2.3,1.6-4,1.6h-2.7c-1.6,0-3-0.5-4-1.6s-1.5-2.4-1.5-3.8V83.5C743.4,80.1,745.2,78.3,748.9,78.3z"
			/>
		<path class="st0" d="M887.4,64.6c1.6-4.9,5.2-7.4,10.6-7.4c5.4,0,9,2.6,10.8,7.7L971.8,242c0.2,0.5,0.3,1.2,0.3,1.9
			c0,3.7-1.8,5.5-5.5,5.5h-3.3c-2.4,0-4.1-1.2-5.2-3.6L898.3,75.6l-60,170.3c-1.1,2.4-2.8,3.6-5.2,3.6h-3.3c-3.7,0-5.5-1.8-5.5-5.5
			c0-0.7,0.1-1.4,0.3-1.9L887.4,64.6z M874.5,165h47.4c1.5,0,2.7,0.5,3.8,1.5s1.6,2.3,1.6,4v2.5c0,1.6-0.5,3-1.6,4
			c-1.1,1-2.4,1.5-3.8,1.5h-47.4c-3.5,0-5.2-1.8-5.2-5.5v-2.5C869.3,166.8,871,165,874.5,165z"/>
		<path class="st0" d="M1007.7,57.5h37.6c44.2,0,66.4,17.4,66.4,52.1c0,13.5-4.3,25.5-12.9,36.1c-8.6,10.5-22.1,15.8-40.6,15.8h-3
			l59.2,77.9c2.2,3.3,3.3,5.3,3.3,6c0,2.7-1.3,4.1-3.8,4.1h-5.5c-2.4,0-4.1-0.7-5.2-2.2l-63.3-83.4c-2-2.9-3-5.3-3-7.1
			c0-5.8,3.2-8.8,9.6-8.8h12.1c7.7,0,14.3-1.3,19.7-3.8c5.5-2.6,9.5-5.9,12.1-9.9c5.1-7.9,7.7-16,7.7-24.4
			c0-25.8-17.6-38.7-52.9-38.7h-35.1v172.7c0,1.5-0.5,2.7-1.5,3.8c-1,1.1-2.3,1.6-4,1.6h-2.7c-1.6,0-3-0.5-4-1.6
			c-1-1.1-1.5-2.4-1.5-3.8V70.4c0-4.9,0.8-8.3,2.3-10.1C1000.1,58.4,1003.2,57.5,1007.7,57.5z"/>
	</g>
	<g>
		<path class="st0" d="M730.4,434.9c0-5.5,4.4-10.1,10.5-10.1v-97.9c0-5.9,4.8-10.5,10.3-10.5c5.9,0,10.3,4.6,10.3,10.5v97.9
			c0,11.2-9.1,20.6-20.6,20.6C734.7,445.4,730.4,441,730.4,434.9z M741,292.8V289c0-6.1,4.8-10.5,10.5-10.5
			c5.7,0,10.3,4.4,10.3,10.5v3.8c0,5.5-4.6,10.5-10.3,10.5C745.8,303.3,741,298.4,741,292.8z"/>
		<path class="st0" d="M805.2,397.8c-8.2-8.4-13.1-20.2-13.1-33.5c0-12.9,5-24.2,13.1-33.3c8.6-8.9,19.6-14.5,32.8-14.5
			c12.6,0,24,5.5,31.8,14.5c8.6,9.1,13.3,20.4,13.3,33.3c0,13.3-4.8,25.1-13.3,33.5c-7.8,9-19.2,14.5-31.8,14.5
			C824.8,412.2,813.8,406.7,805.2,397.8z M812.8,364.3c0,8.2,2.5,14.9,6.9,20.2c4.8,4.6,11,7,18.3,7c6.7,0,12.8-2.5,17.5-7
			c4.8-5.3,7.4-12,7.4-20.2c0-7.8-2.7-14.7-7.4-19.8c-4.8-4.2-10.9-7.2-17.5-7.2c-7.2,0-13.5,3-18.3,7.2
			C815.3,349.6,812.8,356.4,812.8,364.3z"/>
		<path class="st0" d="M915.4,364.3c0-0.2,0-0.2,0-0.2v-75.4c0-5.5,4.6-10.3,10.3-10.3c5.9,0,10.5,4.8,10.5,10.3v35.8
			c7-5,16.2-8,25.5-8c25.7,0,46.3,21.7,46.3,47.8c0,25.7-20.6,47.4-46.3,47.4c-9.5,0-18.7-3.2-25.9-8.2c-1,4.6-5,8.2-10.1,8.2
			c-5.7,0-10.3-4.8-10.3-10.3V364.3z M936.2,364.3c0,7.2,2.9,14.1,7.6,18.9c4.8,5,10.9,7.8,17.9,7.8c6.9,0,13.1-2.9,17.9-7.8
			c4.8-4.8,7.6-11.6,7.6-18.9c0-7.6-2.9-14.5-7.6-19.2c-4.8-5-11-7.8-17.9-7.8c-7,0-13.1,2.9-17.9,7.8
			C939.1,349.8,936.2,356.6,936.2,364.3z"/>
		<path class="st0" d="M1036.5,384.4c3.4-4.6,10.1-5.1,14.3-1.5c5,4.2,13.5,8.6,20.9,8.4c5.1,0,9.9-1.7,12.9-3.6
			c2.7-2.3,3.4-4.2,3.4-5.7c0-1-0.2-1.3-0.6-1.9c-0.2-0.6-1-1.3-2.5-2.3c-2.7-1.9-8.4-4-15.2-5.3h-0.2c-5.9-1.1-11.6-2.7-16.6-5
			c-5.1-2.5-9.7-5.9-13.1-11c-2.1-3.4-3.2-7.6-3.2-12c0-8.8,5-16.2,11.2-20.9c6.7-4.6,14.7-7,23.4-7c13.1,0,22.5,6.3,28.6,10.5
			c4.6,3,5.9,9.3,3,14.1c-3,4.6-9.3,5.9-14.1,2.7c-6.1-4-11.4-7-17.5-7c-4.8,0-8.9,1.5-11.4,3.4c-2.5,1.7-3,3.4-3,4.4
			c0,0.8,0,1,0.4,1.5c0.2,0.4,0.8,1.1,2.1,1.9c2.5,1.7,7.4,3.4,13.9,4.6l0.2,0.2h0.2c6.3,1.1,12.2,2.9,17.7,5.5
			c5.1,2.3,10.3,5.9,13.5,11.2c2.3,3.8,3.6,8.2,3.6,12.6c0,9.3-5.1,17.1-12,22.1c-6.9,4.8-15.4,7.6-24.8,7.6
			c-14.9-0.2-26.3-7-33.9-13.1C1033.7,395.1,1033.1,388.6,1036.5,384.4z"/>
	</g>
</g>
</svg>
